<svg id="b7a4ce77-35df-4174-bf30-4e4b735121e3" data-name="Layer 1" xmlns="http://www.w3.org/2000/svg" width="98.56" height="44.74" viewBox="0 0 98.56 44.74"><path d="M83.23,22.72a10.59,10.59,0,0,0-8.6,16.8c-.29-1.46,1.42-3.09,2.65-3.55,0,0,3.64,1.08,5,.43s.68-1.16,1.21-1.9,3-.78,4.15-1.43a1.12,1.12,0,0,0,.41-.74,4.92,4.92,0,0,0-9.73,1,.4.4,0,0,1-.8,0,5.72,5.72,0,0,1,10.68-2.84c0-1.87-.13-4.11.63-4.36,1.36-.46,3.63,1.33,4.51,4.16a11.93,11.93,0,0,1,.3,5.1,10.22,10.22,0,0,0,.21-2.09A10.62,10.62,0,0,0,83.23,22.72Zm0,7.91a2.49,2.49,0,0,1,2.49,2.5.4.4,0,0,1-.8,0,1.69,1.69,0,1,0-3.38,0,.4.4,0,0,1-.8,0A2.5,2.5,0,0,1,83.23,30.63Z" fill="none"></path><path d="M7,36.77c-.29-1.73,2.18-3,3.63-3,0,0,3.11,2.16,4.6,2s1-.89,1.74-1.43,3.08.2,4.4-.06l.06,0a6,6,0,0,0,.07-.87,4.92,4.92,0,1,0-9.84,0,.4.4,0,0,1-.8,0,5.72,5.72,0,0,1,11.43-.26c.78-1.79,1.4-5,2.38-5s1.83.91,2.41,2.31a10.61,10.61,0,1,0-19.8,7.43A7.21,7.21,0,0,1,7,36.77Zm9.58-6.14A2.5,2.5,0,0,1,19,33.13a.4.4,0,1,1-.8,0,1.69,1.69,0,1,0-3.38,0,.4.4,0,0,1-.8,0A2.49,2.49,0,0,1,16.55,30.63Z" fill="none"></path><path d="M80.49,21.64c2-2-2.6-1.82-9.21-2.43s-13.64.5-14,1.59-2.2,2.46-4.89,2.29c-1-.06-5-.3-9.45-.33l.28,1.94H67.58a.4.4,0,0,1,0,.8H43.37l.91,6.29a.38.38,0,0,1-.33.45h-.06a.41.41,0,0,1-.4-.35l-.93-6.4H29.7a.38.38,0,0,1-.31-.17c-.86,2.62-.87,8.29-1,9.26l42.88-.46c0-2.8.08-5.38,3-8.72C76.93,22.47,80.07,22.05,80.49,21.64Z" fill="#f1faff"></path><path d="M42.44,24.7l-.28-1.95c-5.53,0-11.38.31-12.35,1.67a2.67,2.67,0,0,0-.17.3l.06,0Z" fill="#f1faff"></path><path d="M24.64,28.07c-1,0-1.6,3.24-2.38,5,0,.09,0,.17,0,.26a5.67,5.67,0,0,1-5.72,5.81.41.41,0,0,1,0-.81,4.88,4.88,0,0,0,4.85-4.13l-.06,0c-1.32.26-3.64-.48-4.4.06s-.37,1.26-1.74,1.43-4.6-2-4.6-2c-1.45,0-3.92,1.28-3.63,3a7.21,7.21,0,0,0,.28,1,10.61,10.61,0,0,0,19.8-7.43C26.47,29,25.53,28.07,24.64,28.07Z" fill="#f1faff"></path><path d="M93.33,30.32c-.88-2.83-3.15-4.62-4.51-4.16-.76.25-.61,2.49-.63,4.36a5.78,5.78,0,0,1-5,8.65.41.41,0,0,1,0-.81,4.87,4.87,0,0,0,4.92-5,5,5,0,0,0-.11-1,1.12,1.12,0,0,1-.41.74c-1.17.65-3.61.68-4.15,1.43s0,1.31-1.21,1.9-5-.43-5-.43c-1.23.46-2.94,2.09-2.65,3.55a10.6,10.6,0,0,0,19-4.1A11.93,11.93,0,0,0,93.33,30.32Z" fill="#f1faff"></path><path d="M6.25,16.12l-4,0a4.49,4.49,0,0,0,2.87,1.68l.23,0A3.59,3.59,0,0,0,6.25,16.12Z" fill="#f1faff"></path><path d="M92.19,19a4.18,4.18,0,0,0,2.11.72c.52,0,.82-.67.94-1H91.9Z" fill="#f1faff"></path><path d="M66.29,11.19C65.62,10.92,60.05,9,57.36,8a30.35,30.35,0,0,0-7.55-2.29,50.23,50.23,0,0,0-9.27.38L41,9C53.75,10.18,66.64,11.32,66.29,11.19Z" fill="#f1faff"></path><path d="M39.56,6.19c-1.59.2-4.91-1-6.48-1.46s-4.36-1.13-5.89-.68-3.32,2.36-4.31,2S19.42,4.42,18,4.72s-1.82,1.22-1.72,2c0,0,11.78,1.09,23.91,2.19l-.41-2.79Z" fill="#f1faff"></path><path d="M96.28,18.61c-1.06-2-4.22-3.55-6.3-4.56-2.53-1.23-7.21-1.57-11.74-1.91S69,11.46,66.92,10.22C56.83,4.11,49,.7,43.54.1c-5.2-.57-18.83,1.42-27,2.61-3,.44-5.38.79-5.89.79A1.47,1.47,0,0,0,9.49,4c-.45.55-.28,1.37-.1,2.24a5,5,0,0,1,.16,1.56c-.08.56-2.67,1.65-4.37,2.37C3,11.05.94,11.92.36,12.78A5.9,5.9,0,0,0,0,15.62a.43.43,0,0,1,0,.05.19.19,0,0,0,0,.08c.07,2.33.49,5.67,1,9.19.19,1.45.36,2.69.37,3s0,1.2,2.93,3.78a.41.41,0,0,0,.1.13l.09.07.18.13c.2.13.4.2.59,0s0-.56-.16-.65C2.32,29,2.17,28.14,2.17,28c0-.33-.11-1.15-.26-2.29a.31.31,0,0,0,.13,0l5.46.2h0a.4.4,0,0,0,.4-.39.39.39,0,0,0-.38-.41l-5.46-.21a.37.37,0,0,0-.26.08l0-.18c-.31-2.25-.83-6.08-1-8.75H2.22l4,0a3.59,3.59,0,0,1-.93,1.63l-.08.05a.39.39,0,0,0-.22.52.4.4,0,0,0,.52.22c1-.4,1.54-2.33,1.64-2.72a.42.42,0,0,0-.07-.34.43.43,0,0,0-.32-.16l-6,0A4.71,4.71,0,0,1,1,13.22c.44-.66,2.57-1.56,4.46-2.36,2.91-1.23,4.7-2,4.85-3A5.18,5.18,0,0,0,10.17,6c-.12-.62-.27-1.32-.06-1.57a.73.73,0,0,1,.57-.17c.57,0,2.73-.31,6-.79C24.79,2.32,38.36.34,43.46.9c5.3.58,13,4,23.05,10,2.21,1.33,6.8,1.67,11.67,2,4.46.33,9.06.67,11.45,1.83a20.52,20.52,0,0,1,5.11,3.16H90.93a.41.41,0,0,0-.37.25.42.42,0,0,0,.09.44l2.49,2.49a.4.4,0,0,0,.29.12.41.41,0,0,0,.28-.69L92.19,19l-.29-.29h3.49a1.51,1.51,0,0,1,.18.26c.94,1.77,2.52,6.19,2.15,7.36-.43,1.33-1.44,5.21-1.7,6.21l-1,.25a.4.4,0,0,0-.29.48.39.39,0,0,0,.39.31h.09l1.51-.36.06-.24s1.27-4.92,1.74-6.4S97.14,20.23,96.28,18.61Z" fill="#0198ff"></path><path d="M70.8,34.19l-42.07.42a.42.42,0,0,0-.4.41.41.41,0,0,0,.4.39h0L70.8,35a.39.39,0,0,0,.4-.4A.39.39,0,0,0,70.8,34.19Z" fill="#0198ff"></path><path d="M29.7,25.5H42.56l.93,6.4a.41.41,0,0,0,.4.35H44a.38.38,0,0,0,.33-.45l-.91-6.29H67.58a.4.4,0,0,0,0-.8H43.25L43,22.76,41.1,10l24.34,2.2h0a.4.4,0,0,0,0-.8L41,9.13V9l-.43-3-.58-4a.41.41,0,0,0-.46-.34.4.4,0,0,0-.34.45l.58,4L40.15,9v.11C28.5,8,17,6.94,16.15,6.8A.26.26,0,0,1,16,6.74c-.11-.2.12-.87.25-1.23a3,3,0,0,0,.23-.83.4.4,0,0,0-.8,0,3.67,3.67,0,0,1-.18.61c-.23.64-.49,1.38-.18,1.9a1,1,0,0,0,.7.44c.91.14,12.52,1.21,24.25,2.28l1.88,12.88.28,1.95H29.7l-.06,0a.39.39,0,0,0-.34.38.36.36,0,0,0,.09.23A.38.38,0,0,0,29.7,25.5Z" fill="#0198ff"></path><path d="M16.86,21.92A11.41,11.41,0,1,0,28.27,33.33,11.42,11.42,0,0,0,16.86,21.92Zm0,.8A10.6,10.6,0,1,1,6.25,33.33,10.63,10.63,0,0,1,16.86,22.72Z" fill="#0198ff"></path><path d="M16.55,38.36a.41.41,0,0,0,0,.81,5.67,5.67,0,0,0,5.72-5.81c0-.09,0-.17,0-.26a5.72,5.72,0,0,0-11.43.26.4.4,0,0,0,.8,0,4.92,4.92,0,1,1,9.84,0,6,6,0,0,1-.07.87A4.88,4.88,0,0,1,16.55,38.36Z" fill="#0198ff"></path><path d="M83.23,21.92A11.41,11.41,0,1,0,94.64,33.33,11.42,11.42,0,0,0,83.23,21.92Zm10.4,13.5a10.6,10.6,0,1,1,.21-2.09A10.22,10.22,0,0,1,93.63,35.42Z" fill="#0198ff"></path><path d="M14.46,33.53a.4.4,0,0,0,.4-.4,1.69,1.69,0,1,1,3.38,0,.4.4,0,1,0,.8,0,2.49,2.49,0,1,0-5,0A.4.4,0,0,0,14.46,33.53Z" fill="#0198ff"></path><path d="M83.23,38.36a.41.41,0,0,0,0,.81,5.77,5.77,0,0,0,0-11.53,5.73,5.73,0,0,0-5.72,5.72.4.4,0,0,0,.8,0,4.92,4.92,0,0,1,9.73-1,5,5,0,0,1,.11,1A4.87,4.87,0,0,1,83.23,38.36Z" fill="#0198ff"></path><path d="M81.14,33.53a.4.4,0,0,0,.4-.4,1.69,1.69,0,1,1,3.38,0,.4.4,0,0,0,.8,0,2.49,2.49,0,1,0-5,0A.4.4,0,0,0,81.14,33.53Z" fill="#0198ff"></path></svg>