<?xml version="1.0" encoding="utf-8"?>
<!-- Generator: Adobe Illustrator 24.1.0, SVG Export Plug-In . SVG Version: 6.00 Build 0)  -->
<svg version="1.1" id="Layer_1" xmlns="http://www.w3.org/2000/svg" xmlns:xlink="http://www.w3.org/1999/xlink" x="0px" y="0px"
	 viewBox="0 0 800 800" style="enable-background:new 0 0 800 800;" xml:space="preserve">
<style type="text/css">
	.st0{fill:#0198FF;}
</style>
<g id="Trov_Icon_Blue">
	<path class="st0" d="M400,223.8c-135.6,0-245.6,109.9-245.6,245.6S264.4,715,400,715s245.6-110,245.6-245.6S535.6,223.8,400,223.8z
		 M400,616.3c-81.1,0-146.9-65.8-146.9-146.9S318.8,322.5,400,322.5s146.9,65.8,146.9,146.9c0,0,0,0,0,0
		C546.9,550.5,481.1,616.3,400,616.3C400,616.3,400,616.3,400,616.3z"/>
	<path class="st0" d="M565.7,174H234.3c-6.9,0-12.4-4.9-12.4-11V96c0-6.1,5.6-11,12.4-11h331.4c6.9,0,12.4,4.9,12.4,11v67
		C578.1,169.1,572.6,174,565.7,174z"/>
</g>
</svg>
