<?xml version="1.0" encoding="utf-8"?>
<!-- Generator: Adobe Illustrator 24.1.0, SVG Export Plug-In . SVG Version: 6.00 Build 0)  -->
<svg version="1.1" id="Layer_1" xmlns="http://www.w3.org/2000/svg" xmlns:xlink="http://www.w3.org/1999/xlink" x="0px" y="0px"
	 viewBox="0 0 800 420" style="enable-background:new 0 0 800 420;" xml:space="preserve">
<style type="text/css">
	.st0{fill:#0198FF;}
</style>
<g id="Trov_Logo_Blue">
	<path class="st0" d="M522.9,147.1c-1.2-2.9,0.4-5.3,3.6-5.3h37.2c2.5,0.1,4.6,1.6,5.6,3.9l48.6,132.4c0.3,0.7,1.1,1.1,1.8,0.8
		c0.4-0.1,0.7-0.4,0.8-0.8l49-132.4c1-2.3,3.1-3.8,5.6-3.9h36.1c3.1,0,4.7,2.4,3.6,5.3l-74.5,184.2c-1,2.2-3.1,3.6-5.5,3.7h-31.4
		c-2.4-0.1-4.5-1.5-5.5-3.7L522.9,147.1z"/>
	<path class="st0" d="M427.5,137.9c-55.5,0-100.6,45-100.6,100.5S371.8,339,427.4,339c55.5,0,100.6-45,100.6-100.5c0,0,0,0,0-0.1
		C528,182.9,483,137.9,427.5,137.9z M427.5,298.6c-33.2,0-60.2-26.9-60.2-60.2s26.9-60.2,60.2-60.2s60.2,26.9,60.2,60.2c0,0,0,0,0,0
		C487.6,271.6,460.7,298.6,427.5,298.6C427.5,298.6,427.5,298.6,427.5,298.6z"/>
	<path class="st0" d="M322.9,142.5c0-2.5-2.1-4.6-4.6-4.6c0,0-0.1,0-0.1,0c-29.7,0.6-48.6,12.9-61.7,35.8c-0.4,0.7-1.2,0.9-1.9,0.5
		c-0.4-0.2-0.7-0.7-0.7-1.2v-26.5c0-2.5-2.1-4.6-4.6-4.6h0h-116c-2.5,0-4.6-2.1-4.6-4.6v0V85.6c0-2.5-2.1-4.6-4.6-4.6H89.6
		c-2.5,0-4.6,2.1-4.6,4.6v193.9c0,41.9,23.2,55.5,55.4,55.5h22.8c2.5,0,4.6-2.1,4.6-4.6l0,0v-29.9c0-2.5-2.1-4.6-4.6-4.6h0h-10.5
		c-14.8,0-24-1-24-23.3v-89.4c0-2.5,2.1-4.6,4.6-4.6h0h72.3c2.5,0,4.6,2.1,4.6,4.6v0v147.2c0,2.5,2.1,4.6,4.6,4.6h0h34.5
		c2.5,0,4.6-2.1,4.6-4.6l0,0v-70.8c0-48.7,28.4-74.4,64.7-76.3c2.4-0.1,4.3-2.2,4.3-4.6L322.9,142.5z"/>
	<path class="st0" d="M495.3,117.4H359.6c-2.6,0.2-4.9-1.9-5.1-4.5V85.5c0.2-2.6,2.4-4.7,5.1-4.5h135.7c2.8,0,5.1,2,5.1,4.5v27.4
		C500.4,115.4,498.1,117.4,495.3,117.4z"/>
</g>
</svg>
